<svg id="Calque_1" data-name="Calque 1" xmlns="http://www.w3.org/2000/svg" viewBox="0 0 1387.22 1409.43"><defs><style>.cls-1,.cls-14{fill:#fff;}.cls-1,.cls-10,.cls-13,.cls-15,.cls-16,.cls-2,.cls-3,.cls-4,.cls-5,.cls-6,.cls-7,.cls-8,.cls-9{fill-rule:evenodd;}.cls-2{fill:#ffca1e;stroke-width:1.11px;}.cls-12,.cls-15,.cls-16,.cls-2,.cls-3{stroke:#d7c5b2;}.cls-10,.cls-11,.cls-12,.cls-13,.cls-15,.cls-16,.cls-2,.cls-3,.cls-4,.cls-5,.cls-6,.cls-7,.cls-8,.cls-9{stroke-linecap:square;stroke-linejoin:round;}.cls-15,.cls-16,.cls-3{fill:#ffd241;}.cls-3{stroke-width:0.35px;}.cls-13,.cls-4,.cls-6,.cls-8{fill:#2f6490;}.cls-10,.cls-11,.cls-13,.cls-4,.cls-5,.cls-8,.cls-9{stroke:#d1e3f2;}.cls-4{stroke-width:0.62px;}.cls-10,.cls-5,.cls-9{fill:#3775a8;}.cls-5{stroke-width:1.15px;}.cls-6{stroke:#fff;stroke-width:1.17px;}.cls-7{fill:#efeeea;stroke:#d8d8d8;}.cls-7,.cls-8{stroke-width:1.44px;}.cls-9{stroke-width:1.2px;}.cls-10{stroke-width:1.43px;}.cls-11,.cls-12{fill:none;stroke-width:3.71px;}.cls-13{stroke-width:1.16px;}.cls-15{stroke-width:1.37px;}.cls-16{stroke-width:1.48px;}.cls-17{fill:#fefdfd;}</style></defs><path class="cls-1" d="M-372.25-383.84h2227v2227h-2227Z"/><path class="cls-2" d="M1079.11,218.66l-237.42,91.4,231,84.52,244.21-88.93Z"/><path class="cls-3" d="M378.46,648.86,1316.9,305.71V860.07L378.46,1203.22Z"/><path class="cls-4" d="M378.69,205.69l467.69-171,231.42,82.78-467.69,171Z"/><path class="cls-5" d="M610.76,289.2l244-89.23V1303.75l-244,89.22Z"/><path class="cls-6" d="M610.87,289.61,378.26,206.3V1310.07l232.61,83.32Z"/><path class="cls-7" d="M610.87,1114.36l-232.61-85v280.76l232.61,85.06Z"/><path class="cls-8" d="M378.29,648.94l-231-84.48v554.28l231,84.48Z"/><path class="cls-9" d="M854.7,199.17l223.19-81.61V1221.33L854.7,1303Z"/><path class="cls-10" d="M378.48,648.84l232.41-85v554.36l-232.41,85Z"/><path class="cls-11" d="M148,840.83l230.57,83.38L1079,670.71M614.39,562.55l463-169.26"/><path class="cls-12" d="M1079,670.71l237.32-86.14"/><path class="cls-13" d="M147.41,564.33l230.91-84.08,231,84.52L378.36,648.85Z"/><ellipse class="cls-14" cx="705.71" cy="392.47" rx="60.14" ry="39.36" transform="translate(6.97 797.22) rotate(-59.16)"/><path class="cls-11" d="M623.85,116.92l229,82.13"/><path class="cls-15" d="M854.77,751.91l-244,89.23.07,553.87,243.94-91.26Z"/><path class="cls-16" d="M1077.89,670.54,854.7,752.16v551.58l223.19-82.4Z"/><ellipse class="cls-17" cx="1006.38" cy="1114.63" rx="57.96" ry="37.74" transform="translate(-480.34 1326.39) rotate(-56.03)"/><path class="cls-12" d="M611.32,1118.83,1079.1,948.18"/></svg>